<svg width="825" height="785" viewBox="0 0 825 785" fill="none" xmlns="http://www.w3.org/2000/svg">
<path fill-rule="evenodd" clip-rule="evenodd" d="M78.7805 149.922L285.03 0H539.97L746.219 149.922L825 392.5L746.219 635.078L539.97 785H285.03L78.7805 635.078L0 392.5L78.7805 149.922ZM412.5 41.4373L316.769 10.3175L508.231 10.3175L412.5 41.4373ZM395.814 46.8615L288.97 12.1289L222.936 103.06L395.814 46.8615ZM227.629 112.383L401.297 55.9276L334.339 148.438L227.629 112.383ZM209.413 121.681L98.0038 275.097L208.95 239.534L209.413 121.681ZM208.908 250.382L96.0358 286.562L165.201 382.122L208.626 322.125L208.908 250.382ZM218.995 307.799L219.233 247.072L276.154 228.826L218.995 307.799ZM208.556 339.812L171.567 390.917L208.157 441.471L208.556 339.812ZM218.414 455.642L218.925 325.487L292.733 223.512L411.566 185.421L537.495 227.97L611.136 329.713L612.152 458.267L491.553 620.4L291.175 556.17L218.414 455.642ZM208.088 458.967L165.201 399.713L97.0068 493.931L207.811 529.449L208.088 458.967ZM218.111 532.75L218.345 473.138L274.596 550.856L218.111 532.75ZM207.769 540.269L93.4436 503.623L207.297 660.404L207.769 540.269ZM217.574 669.349L218.068 543.57L284.807 564.963L404.292 730.046L217.574 669.349ZM554.349 233.665L610.995 311.927L610.526 252.646L554.349 233.665ZM610.44 241.727L543.916 219.249L499.118 157.357L609.494 121.976L610.44 241.727ZM620.867 256.139L621.422 326.333L665.248 386.884L734.053 294.383L620.867 256.139ZM732.78 283.063L620.781 245.22L619.851 127.554L732.78 283.063ZM527.062 213.555L428.105 180.12L488.784 160.669L527.062 213.555ZM411.65 174.56L482.419 151.876L413.501 56.6572L344.569 151.895L411.65 174.56ZM328.005 157.188L286.365 214.719L219.276 236.224L219.73 120.604L328.005 157.188ZM338.236 160.645L395.111 179.862L302.943 209.405L338.236 160.645ZM501.932 623.727L612.287 475.367L613.742 659.567L501.932 623.727ZM622.491 461.648L623.993 651.742L734.672 499.333L734.168 499.697L665.134 404.319L622.491 461.648ZM621.562 344.119L622.356 444.548L658.795 395.56L621.562 344.119ZM426.321 56.7787L601.468 113.715L492.753 148.563L426.321 56.7787ZM89.0926 294.561V487.274L158.835 390.918L89.0926 294.561ZM423.532 729.128L608.932 668.859L495.425 632.475L423.532 729.128ZM485.045 629.148L413.558 725.256L301.385 570.277L485.045 629.148ZM671.588 395.643L735.907 484.508V309.172L671.588 395.643ZM206.25 108.484L265.415 27.0115L110.519 139.604L206.25 108.484ZM110.519 645.396L265.415 757.989L206.25 676.516L110.519 645.396ZM195.938 662.315L89.0926 515.185V627.582L195.938 662.315ZM78.7801 500.984V601.689L19.6155 419.511L78.7801 500.984ZM78.7801 301.569L12.7469 392.5L78.7801 483.431V301.569ZM78.7801 284.016L19.6155 365.488L78.7801 183.311V284.016ZM89.0926 269.815V157.418L195.938 122.685L89.0926 269.815ZM222.936 681.94L288.97 772.871L395.814 738.139L222.936 681.94ZM412.5 743.563L316.769 774.683H508.231L412.5 743.563ZM559.584 757.989L714.481 645.396L618.75 676.516L559.584 757.989ZM602.064 681.94L429.186 738.139L536.03 772.871L602.064 681.94ZM629.062 662.315L735.907 627.582V515.185L629.062 662.315ZM746.219 500.984V601.69L805.385 419.51L746.219 500.984ZM805.385 365.49L746.219 183.31V284.016L805.385 365.49ZM746.219 483.431L812.253 392.5L746.219 301.569V483.431ZM735.907 269.815V157.418L629.062 122.685L735.907 269.815ZM618.75 108.484L714.481 139.604L559.584 27.0109L618.75 108.484ZM602.064 103.06L429.186 46.8615L536.03 12.1289L602.064 103.06Z" fill="url(#paint0_radial_46_2)"/>
<defs>
<radialGradient id="paint0_radial_46_2" cx="0" cy="0" r="1" gradientTransform="matrix(405.168 608.873 -639.898 426.223 271.302 171.53)" gradientUnits="userSpaceOnUse">
<stop stop-color="#F5333F"/>
<stop offset="1" stop-color="white" stop-opacity="0"/>
</radialGradient>
</defs>
</svg>
